<svg width="39" height="38" viewBox="0 0 39 38" fill="none" xmlns="http://www.w3.org/2000/svg">
<circle cx="19.2142" cy="18.8683" r="18.8683" fill="#DBFFFF"/>
<g clip-path="url(#clip0_1_844)">
<path fill-rule="evenodd" clip-rule="evenodd" d="M19.2142 0C8.78949 0 0.345947 8.44354 0.345947 18.8682C0.345947 27.2175 5.74698 34.2695 13.2471 36.7695C14.1905 36.9346 14.5443 36.3686 14.5443 35.8733C14.5443 35.4251 14.5207 33.9393 14.5207 32.3591C9.78007 33.2317 8.55364 31.2034 8.17627 30.142C7.964 29.5996 7.04418 27.925 6.24228 27.4769C5.58189 27.1231 4.63847 26.2505 6.21869 26.2269C7.70457 26.2033 8.7659 27.5948 9.11968 28.1609C10.8178 31.0147 13.5301 30.2128 14.6151 29.7175C14.7802 28.4911 15.2755 27.6656 15.8179 27.1939C11.6197 26.7222 7.23286 25.0948 7.23286 17.8777C7.23286 15.8257 7.964 14.1276 9.16685 12.8068C8.97817 12.3351 8.31778 10.4011 9.35554 7.80674C9.35554 7.80674 10.9358 7.31145 14.5443 9.74073C16.0538 9.3162 17.6576 9.10393 19.2614 9.10393C20.8652 9.10393 22.469 9.3162 23.9784 9.74073C27.587 7.28786 29.1672 7.80674 29.1672 7.80674C30.205 10.4011 29.5446 12.3351 29.3559 12.8068C30.5587 14.1276 31.2899 15.8022 31.2899 17.8777C31.2899 25.1184 26.8794 26.7222 22.6812 27.1939C23.3652 27.7835 23.9548 28.9156 23.9548 30.6845C23.9548 33.2081 23.9313 35.2365 23.9313 35.8733C23.9313 36.3686 24.285 36.9582 25.2285 36.7695C28.9741 35.5049 32.2289 33.0976 34.5347 29.8863C36.8405 26.6751 38.0813 22.8216 38.0825 18.8682C38.0825 8.44354 29.6389 0 19.2142 0Z" fill="#5222D0"/>
</g>
<defs>
<clipPath id="clip0_1_844">
<rect width="37.7365" height="37.7365" fill="white" transform="translate(0.345947)"/>
</clipPath>
</defs>
</svg>
