<svg width="39" height="38" viewBox="0 0 39 38" fill="none" xmlns="http://www.w3.org/2000/svg">
<circle cx="19.2479" cy="18.8683" r="18.8683" fill="#5222D0"/>
<g clip-path="url(#clip0_1_831)">
<path d="M31.0406 11.4975V26.2383C31.0406 27.0748 30.4031 27.7124 29.5666 27.7124H28.0925V14.3343L19.248 20.6876L10.4035 14.3343V27.7124H8.9294C8.09286 27.7124 7.45532 27.0748 7.45532 26.2383V11.4975C7.45532 11.0788 7.61305 10.7103 7.87765 10.4494C8.01545 10.3115 8.17958 10.2027 8.36026 10.1296C8.54094 10.0564 8.73449 10.0203 8.9294 10.0234H9.42101L19.248 17.1484L29.0749 10.0234H29.5666C29.9852 10.0234 30.3537 10.1811 30.6183 10.4494C30.8829 10.7103 31.0406 11.0788 31.0406 11.4975Z" fill="#DBFFFF"/>
</g>
<defs>
<clipPath id="clip0_1_831">
<rect width="23.5853" height="23.5853" fill="white" transform="translate(7.45508 7.07568)"/>
</clipPath>
</defs>
</svg>
