<svg width="39" height="38" viewBox="0 0 39 38" fill="none" xmlns="http://www.w3.org/2000/svg">
<ellipse cx="19.3519" cy="18.868" rx="18.8683" ry="18.8683" fill="#5222D0"/>
<path d="M10.0633 28.705H14.0113V14.0974H10.0633V28.705ZM12.0373 7.64893C10.7213 7.64893 9.66846 8.70173 9.66846 10.0177C9.66846 11.3337 10.7213 12.3866 12.0373 12.3866C13.3533 12.3866 14.4061 11.3337 14.4061 10.0177C14.4061 8.70173 13.3533 7.64893 12.0373 7.64893ZM20.7229 16.3346V14.0974H16.7749V28.705H20.7229V21.2038C20.7229 16.9926 26.1185 16.7294 26.1185 21.2038V28.705H30.0666V19.7562C30.0666 12.6498 22.5653 12.913 20.7229 16.3346Z" fill="#DBFFFF"/>
</svg>
