<svg width="120" height="120" viewBox="0 0 120 120" fill="none" xmlns="http://www.w3.org/2000/svg">
<path d="M84.7409 47.7544C78.7206 19.869 66.1565 12.4436 62.9684 7.19463C61.2356 4.33931 59.4687 0 59.4687 0C59.296 2.47333 58.9897 4.03976 56.9795 5.91949C52.9537 9.68719 35.8456 24.3238 34.4086 56.0098C33.0684 85.5523 55.087 103.772 58.0134 105.655C60.2488 106.809 62.9867 105.677 64.2955 104.619C74.9069 96.9681 89.4237 76.5686 84.7279 47.7544" fill="#10AA50"/>
<path d="M60.3807 89.9189C59.8284 97.2345 59.4305 101.491 58.0249 105.663C58.0249 105.663 58.9515 112.624 59.5954 120H61.891C62.439 114.805 63.2754 109.648 64.396 104.556C61.4224 103.025 60.4932 96.3358 60.3807 89.9189Z" fill="#B8C4C2"/>
<path d="M64.3943 104.561C61.3894 103.105 60.5204 96.2809 60.3869 89.9189C61.1272 79.43 61.3413 68.9075 61.0282 58.395C60.8711 52.8795 61.1067 7.30163 59.7351 0.62915C60.29 1.93452 61.6302 5.00144 62.9704 7.19171C66.1716 12.4434 78.7252 19.8689 84.7403 47.757C89.4283 76.497 74.9979 96.8607 64.3943 104.561Z" fill="#12924F"/>
</svg>
