<svg width="120" height="120" viewBox="0 0 120 120" fill="none" xmlns="http://www.w3.org/2000/svg">
<path d="M117.889 71.8826C117.189 69.7638 115.357 68.2881 112.987 67.9339C111.869 67.7671 110.59 67.8382 109.075 68.1504C106.435 68.695 104.477 68.9024 103.048 68.9425C108.443 59.8342 112.829 49.4475 115.355 39.6702C119.438 23.8605 117.256 16.6581 114.706 13.4004C107.958 4.77748 98.1119 0.145172 86.234 0.00343171C79.8976 -0.0740469 74.3351 1.177 71.4333 2.07667C68.7316 1.59995 65.8266 1.33378 62.7785 1.28456C57.0647 1.19341 52.0163 2.43899 47.7026 4.99898C45.3144 4.19138 41.4815 3.0529 37.0552 2.32642C26.6448 0.617336 18.2543 1.94906 12.1171 6.28467C4.68552 11.5341 1.24046 20.6547 1.87761 33.3931C2.07996 37.4374 4.34234 49.7429 7.90453 61.413C9.95179 68.1208 12.1349 73.691 14.3931 77.9706C17.5957 84.039 21.0226 87.6126 24.8696 88.896C27.0258 89.6143 30.9435 90.1174 35.064 86.6856C35.5863 87.3182 36.2831 87.9467 37.2079 88.5305C38.3823 89.2711 39.8184 89.8763 41.2527 90.235C46.4214 91.5271 51.2629 91.2039 55.3934 89.3928C55.419 90.1274 55.4386 90.8293 55.455 91.4355C55.4823 92.4185 55.5097 93.3825 55.5457 94.2839C55.7904 100.379 56.2051 105.119 57.4339 108.435C57.5013 108.617 57.592 108.895 57.6877 109.19C58.3007 111.067 59.3257 114.209 61.9335 116.669C64.6339 119.218 67.9003 120 70.8919 120C72.3922 120 73.8238 119.803 75.0794 119.534C79.5549 118.575 84.638 117.114 88.315 111.878C91.7915 106.928 93.4815 99.4736 93.7873 87.7274C93.8269 87.3952 93.8634 87.078 93.8985 86.7758L93.9714 86.1551L94.7904 86.2271L95.0014 86.2412C99.5599 86.449 105.134 85.4824 108.557 83.8922C111.262 82.6371 119.93 78.0608 117.889 71.8826" fill="#1F2626"/>
<path d="M110.095 73.0839C96.5413 75.88 95.6093 71.291 95.6093 71.291C109.92 50.0559 115.903 23.1011 110.74 16.5041C96.6557 -1.49149 72.275 7.01931 71.868 7.23989L71.7372 7.26359C69.0592 6.70757 66.0626 6.37669 62.6941 6.32154C56.5614 6.22128 51.9091 7.92945 48.3788 10.6066C48.3788 10.6066 4.88593 -7.31104 6.90903 33.141C7.33926 41.7466 19.2436 98.2563 33.4423 81.1877C38.632 74.9462 43.6466 69.669 43.6466 69.669C46.1369 71.3234 49.1185 72.1674 52.244 71.8643L52.487 71.6583C52.4113 72.4331 52.4459 73.191 52.584 74.0884C48.9261 78.1752 50.0013 78.8926 42.6891 80.3979C35.2899 81.9229 39.6364 84.6374 42.4744 85.3474C45.9149 86.2075 53.8743 87.4261 59.2522 79.8975L59.038 80.7566C60.4709 81.9047 61.4772 88.2233 61.3086 93.9517C61.1399 99.6796 61.0274 103.612 62.1563 106.684C63.2861 109.756 64.4114 116.667 74.0242 114.608C82.056 112.887 86.2184 108.426 86.7977 100.985C87.2083 95.6958 88.1385 96.4779 88.1968 91.7485L88.9429 89.5099C89.8029 82.3394 89.0796 80.026 94.0278 81.1021L95.231 81.2078C98.8725 81.3732 103.64 80.6217 106.438 79.3214C112.462 76.5258 116.035 71.8575 110.095 73.0839H110.095" fill="#336791"/>
<path d="M50.9253 36.9892C49.7039 36.8192 48.5978 36.9765 48.0381 37.4003C47.7236 37.6387 47.6261 37.9149 47.5997 38.1049C47.5295 38.6085 47.8822 39.1654 48.0992 39.4526C48.7126 40.2656 49.6086 40.8244 50.4955 40.9475C50.6241 40.9657 50.7521 40.9739 50.8793 40.9739C52.3582 40.9739 53.7032 39.8222 53.8216 38.9722C53.9698 37.9076 52.4243 37.1979 50.9253 36.9897" fill="white"/>
<path d="M91.3868 37.0233C91.2701 36.1888 89.7853 35.9509 88.3761 36.1469C86.9687 36.3429 85.6042 36.9782 85.7181 37.8145C85.8092 38.4649 86.9837 39.5751 88.3738 39.5751C88.4914 39.5751 88.6099 39.5673 88.7293 39.5505C89.6572 39.422 90.3381 38.8327 90.6617 38.4931C91.1539 37.9754 91.4392 37.3984 91.3868 37.0233" fill="white"/>
<path d="M114.606 72.7665C114.089 71.2037 112.426 70.701 109.662 71.2716C101.456 72.9652 98.5173 71.7921 97.5525 71.0815C103.931 61.3648 109.178 49.619 112.009 38.6604C113.349 33.4693 114.09 28.6483 114.151 24.7188C114.218 20.406 113.483 17.2366 111.968 15.3006C105.86 7.49576 96.8953 3.30918 86.0437 3.19433C78.5834 3.11047 72.2803 5.01963 71.0584 5.55651C68.4852 4.91663 65.68 4.52377 62.626 4.47364C57.0257 4.38294 52.1846 5.72378 48.1767 8.45695C46.4357 7.80886 41.9365 6.2643 36.4341 5.37786C26.9216 3.84652 19.3624 5.00687 13.9681 8.82839C7.53144 13.3887 4.55991 21.5403 5.13553 33.0564C5.32923 36.9308 7.53691 48.8497 11.0207 60.2642C15.6065 75.2877 20.5916 83.7926 25.8364 85.5422C26.4503 85.7469 27.1581 85.89 27.9388 85.89C29.8521 85.89 32.1979 85.0277 34.6385 82.0935C37.6153 78.5225 40.6946 75.0381 43.8726 71.6448C45.9344 72.7514 48.1995 73.3694 50.5161 73.4314C50.5207 73.492 50.5266 73.5526 50.5321 73.6128C50.1333 74.0883 49.7428 74.5707 49.3608 75.0598C47.7556 77.0975 47.4215 77.5218 42.2546 78.5856C40.7848 78.8891 36.8812 79.6935 36.8238 82.4299C36.7618 85.4196 41.4384 86.6752 41.9711 86.8083C43.8279 87.2732 45.6167 87.5024 47.3226 87.5024C51.4714 87.5024 55.1224 86.1388 58.0402 83.5004C57.9504 94.1588 58.3948 104.661 59.6745 107.861C60.7228 110.481 63.2832 116.883 71.3711 116.882C72.5579 116.882 73.8641 116.744 75.3011 116.436C83.7421 114.627 87.4078 110.896 88.8256 102.671C89.5845 98.2752 90.8866 87.7786 91.4991 82.1482C92.7916 82.5516 94.4556 82.7361 96.2545 82.7357C100.006 82.7357 104.335 81.9386 107.05 80.6784C110.1 79.2619 115.604 75.7863 114.606 72.7665V72.7665ZM94.5044 34.7199C94.4766 36.3821 94.2478 37.8911 94.0053 39.4662C93.7442 41.1602 93.4744 42.9117 93.4064 45.0378C93.3394 47.1069 93.5979 49.2581 93.8476 51.3386C94.3526 55.5407 94.8708 59.8667 92.865 64.1353C92.5318 63.545 92.235 62.9348 91.9763 62.3082C91.727 61.7039 91.1855 60.7331 90.4358 59.3896C87.5194 54.1593 80.6899 41.9113 84.186 36.9135C85.2274 35.4259 87.8704 33.8964 94.5044 34.7199V34.7199ZM86.463 6.56009C96.1861 6.77475 103.877 10.4121 109.323 17.3706C113.499 22.708 108.9 46.9939 95.5863 67.9455C95.4524 67.7752 95.3178 67.6055 95.1825 67.4364L95.0139 67.2258C98.4544 61.5439 97.7817 55.9222 97.1828 50.938C96.9367 48.8926 96.7043 46.9606 96.7635 45.1458C96.8246 43.2225 97.0789 41.5727 97.325 39.9775C97.6272 38.0118 97.9348 35.9778 97.8501 33.5801C97.9134 33.3285 97.9389 33.0313 97.9057 32.6786C97.6892 30.3793 95.064 23.4978 89.7134 17.2695C86.7866 13.8627 82.5184 10.0503 76.6907 7.4789C79.1973 6.95933 82.6251 6.47486 86.463 6.56009V6.56009ZM32.0557 79.946C29.3667 83.1791 27.51 82.5593 26.8993 82.356C22.9205 81.0289 18.3037 72.6193 14.2333 59.2838C10.7113 47.745 8.65306 36.1419 8.4899 32.8882C7.97581 22.5982 10.4702 15.4268 15.9041 11.573C24.7476 5.30175 39.2872 9.05536 45.1295 10.9591C45.0457 11.042 44.9582 11.1195 44.8752 11.2038C35.2879 20.8859 35.5153 37.428 35.539 38.4393C35.5381 38.8295 35.5709 39.3818 35.6156 40.1416C35.7806 42.924 36.0878 48.1023 35.2674 53.9665C34.5054 59.416 36.1853 64.7497 39.8756 68.6004C40.2543 68.9948 40.6524 69.3702 41.0683 69.7252C39.4257 71.4844 35.8558 75.3748 32.0557 79.946V79.946ZM42.3006 66.2765C39.3264 63.1728 37.9755 58.8559 38.594 54.4314C39.4599 48.2367 39.1404 42.8415 38.9686 39.9429C38.9445 39.5373 38.923 39.1818 38.9107 38.9015C40.3113 37.6595 46.8017 34.1821 51.4304 35.2427C53.5423 35.7262 54.8294 37.1646 55.3645 39.6384C58.1336 52.4466 55.7309 57.7848 53.8003 62.0749C53.4024 62.9586 53.0264 63.794 52.7056 64.6581L52.4567 65.3262C51.8269 67.0153 51.2408 68.5858 50.8775 70.077C47.7155 70.0679 44.6396 68.7171 42.3006 66.276V66.2765ZM42.786 83.5497C41.8627 83.319 41.0323 82.9184 40.5451 82.5862C40.9521 82.3948 41.6763 82.1341 42.9323 81.8752C49.0108 80.6242 49.9496 79.7409 51.9996 77.1381C52.4695 76.541 53.0023 75.8647 53.7401 75.0407L53.741 75.0398C54.8399 73.8092 55.3426 74.018 56.2541 74.3962C56.9929 74.7016 57.7125 75.6277 58.0042 76.6468C58.1423 77.1281 58.2972 78.0414 57.79 78.7524C53.5077 84.7483 47.2675 84.6713 42.786 83.5497V83.5497ZM74.5974 113.152C67.1612 114.745 64.5283 110.951 62.7933 106.614C61.6735 103.814 61.1229 91.1863 61.5135 77.2415C61.5185 77.056 61.4921 76.8769 61.441 76.7083C61.3954 76.3753 61.3259 76.046 61.2332 75.723C60.6526 73.6939 59.2375 71.9967 57.5398 71.293C56.8653 71.0136 55.6274 70.5009 54.1398 70.8815C54.457 69.5743 55.0071 68.0981 55.6037 66.4998L55.8539 65.8276C56.1356 65.0696 56.4893 64.2844 56.863 63.4531C58.8833 58.9648 61.6502 52.8171 58.6473 38.9288C57.5225 33.7268 53.7661 31.1864 48.0719 31.7766C44.6583 32.1298 41.535 33.5071 39.9772 34.297C39.6422 34.4665 39.336 34.6306 39.0497 34.7901C39.4845 29.5489 41.1271 19.7538 47.2716 13.5564C51.1405 9.65513 56.2928 7.72819 62.5704 7.83211C74.9396 8.03446 82.8716 14.3822 87.3481 19.6722C91.2056 24.2302 93.2943 28.822 94.1279 31.2986C87.859 30.6609 83.5954 31.8983 81.4342 34.9884C76.7321 41.7099 84.0065 54.7554 87.5026 61.0253C88.1438 62.1742 88.6971 63.1673 88.8712 63.5894C90.0097 66.3485 91.4836 68.1907 92.5596 69.5351C92.8896 69.9472 93.2096 70.3468 93.4529 70.696C91.5543 71.2433 88.1438 72.508 88.4546 78.8298C88.204 82.0019 86.4215 96.8532 85.5159 102.1C84.3205 109.032 81.7696 111.614 74.5974 113.152V113.152ZM105.636 77.6321C103.695 78.5332 100.446 79.209 97.3592 79.3544C93.9502 79.5139 92.2146 78.9725 91.8063 78.6393C91.6149 74.6998 93.081 74.2882 94.6329 73.8525C94.8767 73.7842 95.1146 73.7172 95.3443 73.637C95.487 73.7532 95.6433 73.8685 95.8147 73.9815C98.5547 75.7899 103.442 75.985 110.341 74.5608L110.417 74.5457C109.486 75.4158 107.894 76.5834 105.636 77.6321Z" fill="white"/>
</svg>
