<svg width="120" height="120" viewBox="0 0 120 120" fill="none" xmlns="http://www.w3.org/2000/svg">
<path d="M0 59.7974C0 69.273 8.84919 78.1189 22.8007 83.1049C20.0147 97.7701 22.3014 109.59 29.9391 114.196C37.79 118.93 49.4858 115.653 60.5867 105.507C71.4076 115.243 82.3439 119.075 89.9746 114.456C97.8178 109.709 100.203 97.087 97.3404 81.964C111.872 76.9405 120 69.3977 120 59.7974C120 50.5414 111.134 42.5338 97.3711 37.5796C100.453 21.8316 97.8416 10.2984 89.8877 5.50237C82.2193 0.878721 71.156 4.9087 60.176 14.9001C48.7532 4.29502 37.799 1.05714 29.8528 5.86712C22.1918 10.5039 20.0057 22.5388 22.8007 37.4756C9.32028 42.39 0 50.5784 0 59.7974Z" fill="white"/>
<path d="M94.4565 42.4992C93.351 42.1013 92.2054 41.7248 91.0259 41.3688C91.2198 40.5415 91.3977 39.7249 91.5559 38.9222C94.1528 25.7415 92.4549 15.1231 86.6569 11.627C81.0973 8.27476 72.005 11.77 62.8223 20.1259C61.9393 20.9294 61.0538 21.7801 60.1687 22.6717C59.5789 22.0818 58.9901 21.5118 58.4028 20.9665C48.779 12.0318 39.1327 8.26663 33.3404 11.7728C27.7861 15.1348 26.1413 25.1171 28.4789 37.6085C28.7046 38.8151 28.9685 40.0472 29.2669 41.3C27.9016 41.7052 26.5836 42.1372 25.3226 42.5968C14.0397 46.7099 6.83398 53.1561 6.83398 59.8425C6.83398 66.7483 14.5693 73.675 26.3213 77.875C27.2487 78.2064 28.211 78.5198 29.2028 78.8173C28.8808 80.1722 28.6009 81.4999 28.3658 82.7949C26.1369 95.0696 27.8776 104.816 33.417 108.157C39.1388 111.607 48.7415 108.061 58.0921 99.5143C58.8311 98.8387 59.5729 98.1223 60.3159 97.3714C61.279 98.3411 62.2405 99.2588 63.197 100.12C72.2541 108.269 81.1995 111.56 86.7339 108.21C92.4499 104.75 94.3076 94.2798 91.8958 81.5412C91.7116 80.5683 91.4973 79.5744 91.2566 78.5628C91.9309 78.3544 92.593 78.1392 93.2385 77.9154C105.456 73.6829 113.405 66.8406 113.405 59.8425C113.405 53.1319 105.967 46.6422 94.4565 42.4992Z" fill="#53C1DE"/>
<path d="M91.8052 73.3972C91.2225 73.599 90.6246 73.7939 90.0153 73.9829C88.6665 69.5184 86.8462 64.771 84.6187 59.8661C86.7444 55.078 88.4943 50.3913 89.8053 45.9557C90.8955 46.2855 91.9536 46.6334 92.9732 47.0006C102.835 50.5504 108.851 55.7988 108.851 59.8429C108.851 64.1505 102.354 69.7425 91.8052 73.3972ZM87.4282 82.466C88.4947 88.0988 88.647 93.1916 87.9406 97.1728C87.3059 100.75 86.0294 103.135 84.4512 104.09C81.0926 106.123 73.9104 103.481 66.1646 96.5115C65.2766 95.7125 64.3822 94.8595 63.485 93.9566C66.4878 90.5226 69.489 86.5305 72.4181 82.0969C77.57 81.6189 82.4374 80.8374 86.8514 79.7705C87.0688 80.6874 87.2619 81.5867 87.4282 82.466ZM43.1649 103.739C39.8836 104.951 37.2702 104.986 35.6904 104.033C32.3288 102.006 30.9313 94.1803 32.8376 83.6831C33.0559 82.4809 33.3158 81.246 33.6153 79.9837C37.9809 80.9931 42.8126 81.7194 47.9769 82.1572C50.9257 86.4956 54.0135 90.4833 57.1253 93.975C56.4454 94.6613 55.7682 95.3147 55.0948 95.9303C50.96 99.7094 46.8165 102.391 43.1649 103.739ZM27.7923 73.3709C22.5958 71.5137 18.3043 69.1001 15.3627 66.4662C12.7195 64.0994 11.385 61.7496 11.385 59.8429C11.385 55.7853 17.1705 50.6099 26.8197 47.0922C27.9905 46.6654 29.2161 46.2631 30.488 45.8853C31.8216 50.421 33.5709 55.1633 35.682 59.9587C33.5436 64.8253 31.7694 69.6431 30.4228 74.2321C29.516 73.9595 28.6375 73.6727 27.7923 73.3709ZM32.9453 36.6947C30.9425 25.9923 32.2726 17.9189 35.6198 15.893C39.1851 13.7348 47.069 16.8119 55.3784 24.5266C55.9095 25.0197 56.4428 25.5358 56.9775 26.0697C53.8811 29.5461 50.8215 33.5039 47.8989 37.8167C42.8868 38.3025 38.0891 39.0828 33.6779 40.1277C33.4006 38.9612 33.1549 37.8152 32.9453 36.6947ZM78.9151 48.5635C77.8606 46.659 76.778 44.7995 75.6744 42.9908C79.0746 43.4402 82.3325 44.0369 85.3919 44.767C84.4734 47.8449 83.3285 51.0631 81.981 54.3622C81.0143 52.4432 79.9918 50.5083 78.9151 48.5635ZM60.1687 29.4717C62.2687 31.8505 64.3716 34.5063 66.44 37.3879C64.3557 37.285 62.2455 37.2314 60.1179 37.2314C58.0104 37.2314 55.9158 37.2838 53.8443 37.3849C55.9148 34.5302 58.036 31.8779 60.1687 29.4717ZM41.3023 48.5964C40.2489 50.5063 39.2454 52.4307 38.2939 54.3586C36.9682 51.071 35.834 47.8382 34.9075 44.7166C37.9481 44.0051 41.1906 43.4234 44.5692 42.9825C43.45 44.8078 42.3585 46.681 41.3023 48.5961V48.5964ZM44.6665 77.0428C41.1758 76.6356 37.8846 76.0838 34.8447 75.392C35.786 72.2147 36.9452 68.9128 38.2991 65.5544C39.253 67.481 40.2605 69.4061 41.3203 71.3202H41.3205C42.4001 73.2701 43.5185 75.1802 44.6665 77.0428ZM60.2947 90.5496C58.1369 88.1153 55.9846 85.4226 53.8826 82.5261C55.9232 82.6098 58.0036 82.6527 60.1179 82.6527C62.2901 82.6527 64.4374 82.6015 66.551 82.5031C64.4758 85.4517 62.3804 88.1486 60.2947 90.5496ZM82.0244 65.3833C83.4488 68.778 84.6496 72.0626 85.603 75.1857C82.513 75.9228 79.1769 76.5164 75.6619 76.9575C76.7682 75.1244 77.8602 73.233 78.9333 71.2874C80.0189 69.319 81.0497 67.3477 82.0244 65.3833ZM74.9898 68.9093C73.3239 71.9295 71.6136 74.8126 69.8773 77.5341C66.7149 77.7706 63.4478 77.8923 60.1179 77.8923C56.8015 77.8923 53.5755 77.7846 50.4691 77.5738C48.6628 74.8166 46.9154 71.9249 45.2601 68.9352H45.2605C43.6096 65.9537 42.0901 62.947 40.7133 59.9571C42.0897 56.9603 43.6052 53.9502 45.2466 50.974L45.2462 50.9746C46.892 47.9905 48.6241 45.1129 50.4137 42.3729C53.5831 42.1224 56.8332 41.9917 60.1177 41.9917H60.1179C63.4173 41.9917 66.6715 42.1234 69.8399 42.3761C71.6022 45.096 73.3225 47.9643 74.9748 50.9488C76.6458 53.9669 78.1808 56.9569 79.569 59.8895C78.185 62.8724 76.6534 65.8926 74.9898 68.9093ZM84.3813 15.7513C87.9501 17.9032 89.3379 26.5816 87.0957 37.9617C86.9527 38.6879 86.7916 39.4275 86.6167 40.1771C82.1953 39.1104 77.3941 38.3166 72.3674 37.8235C69.4391 33.4632 66.4046 29.4993 63.3586 26.0675C64.1776 25.2438 64.9953 24.4583 65.8097 23.7171C73.6775 16.5578 81.031 13.7312 84.3813 15.7513Z" fill="white"/>
<path d="M60.1182 49.8923C65.3739 49.8923 69.6346 54.3472 69.6346 59.8428C69.6346 65.3381 65.3739 69.7932 60.1182 69.7932C54.8625 69.7932 50.6018 65.3381 50.6018 59.8428C50.6018 54.3472 54.8625 49.8923 60.1182 49.8923Z" fill="#53C1DE"/>
</svg>
